{
	"asset":{
		"generator":"Khronos glTF Blender I/O v4.0.44",
		"version":"2.0"
	},
	"scene":0,
	"scenes":[
		{
			"name":"Scene",
			"nodes":[
				0
			]
		}
	],
	"nodes":[
		{
			"mesh":0,
			"name":"teapot",
			"rotation":[
				0.7071068286895752,
				0,
				0,
				0.7071068286895752
			]
		}
	],
	"meshes":[
		{
			"name":"teapot",
			"primitives":[
				{
					"attributes":{
						"POSITION":0,
						"NORMAL":1,
						"TEXCOORD_0":2
					},
					"indices":3
				}
			]
		}
	],
	"accessors":[
		{
			"bufferView":0,
			"componentType":5126,
			"count":8334,
			"max":[
				82.29399871826172,
				47.9283561706543,
				0
			],
			"min":[
				-71.89253234863281,
				-47.9283561706543,
				-79.00656127929688
			],
			"type":"VEC3"
		},
		{
			"bufferView":1,
			"componentType":5126,
			"count":8334,
			"type":"VEC3"
		},
		{
			"bufferView":2,
			"componentType":5126,
			"count":8334,
			"type":"VEC2"
		},
		{
			"bufferView":3,
			"componentType":5123,
			"count":47112,
			"type":"SCALAR"
		}
	],
	"bufferViews":[
		{
			"buffer":0,
			"byteLength":100008,
			"byteOffset":0,
			"target":34962
		},
		{
			"buffer":0,
			"byteLength":100008,
			"byteOffset":100008,
			"target":34962
		},
		{
			"buffer":0,
			"byteLength":66672,
			"byteOffset":200016,
			"target":34962
		},
		{
			"buffer":0,
			"byteLength":94224,
			"byteOffset":266688,
			"target":34963
		}
	],
	"buffers":[
		{
			"byteLength":360912,
			"uri":"teapot.bin"
		}
	]
}
